<svg width="24" height="24" viewBox="0 0 24 24" fill="none" xmlns="http://www.w3.org/2000/svg">
<path fill-rule="evenodd" clip-rule="evenodd" d="M8.58121 19.375C8.58121 20.0205 9.10448 20.5438 9.74996 20.5438H15.25C15.8954 20.5438 16.4187 20.0205 16.4187 19.375C16.4187 18.7295 15.8954 18.2063 15.25 18.2063H9.74996C9.10448 18.2063 8.58121 18.7295 8.58121 19.375Z" fill="#6667AB"/>
<path fill-rule="evenodd" clip-rule="evenodd" d="M4.45621 5.62499C4.45621 2.70133 6.82631 0.331238 9.74996 0.331238H15.25C18.1736 0.331238 20.5437 2.70133 20.5437 5.62499V19.375C20.5437 22.2986 18.1736 24.6687 15.25 24.6687H9.74996C6.82631 24.6687 4.45621 22.2986 4.45621 19.375V5.62499ZM9.74996 2.66874C8.11727 2.66874 6.79372 3.9923 6.79372 5.62499V19.375C6.79372 21.0077 8.11727 22.3312 9.74996 22.3312H15.25C16.8827 22.3312 18.2062 21.0077 18.2062 19.375V5.62499C18.2062 3.9923 16.8827 2.66874 15.25 2.66874H9.74996Z" fill="#6667AB"/>
</svg>
