<svg width="24" height="24" viewBox="0 0 24 24" fill="none" xmlns="http://www.w3.org/2000/svg">
<path fill-rule="evenodd" clip-rule="evenodd" d="M12 3.0625C7.06396 3.0625 3.0625 7.06396 3.0625 12C3.0625 16.936 7.06396 20.9375 12 20.9375C16.936 20.9375 20.9375 16.936 20.9375 12C20.9375 7.06396 16.936 3.0625 12 3.0625ZM0.9375 12C0.9375 5.89035 5.89035 0.9375 12 0.9375C18.1096 0.9375 23.0625 5.89035 23.0625 12C23.0625 18.1096 18.1096 23.0625 12 23.0625C5.89035 23.0625 0.9375 18.1096 0.9375 12Z" fill="black" fill-opacity="0.5"/>
<path fill-rule="evenodd" clip-rule="evenodd" d="M12.5529 7.67908C14.3357 6.6095 16.5144 8.25244 15.9763 10.2606L15.1542 13.3287C14.999 13.9081 14.6246 14.4046 14.1103 14.7132L11.539 16.2558C9.75628 17.3254 7.57754 15.6824 8.11562 13.6743L8.93772 10.6062C9.09298 10.0268 9.46732 9.53033 9.98171 9.22171L12.5529 7.67908ZM13.7531 9.47092C13.7295 9.46906 13.6956 9.47163 13.6462 9.50129L11.075 11.0439C11.0333 11.0689 11.0029 11.1092 10.9903 11.1562L10.1682 14.2243C10.1533 14.28 10.1601 14.3132 10.1684 14.3355C10.1788 14.3634 10.2009 14.3957 10.2364 14.4225C10.272 14.4493 10.3091 14.4616 10.3388 14.464C10.3625 14.4658 10.3964 14.4633 10.4458 14.4336L13.017 12.891C13.0587 12.8659 13.0891 12.8257 13.1017 12.7787L13.9238 9.7106C13.9387 9.65492 13.9318 9.62166 13.9235 9.59942C13.9131 9.57146 13.8911 9.53919 13.8555 9.51236C13.82 9.48554 13.7829 9.47325 13.7531 9.47092Z" fill="black" fill-opacity="0.5"/>
</svg>
