<svg width="60" height="51" viewBox="0 0 60 51" fill="none" xmlns="http://www.w3.org/2000/svg">
<path d="M34.4749 19.6495C34.6143 19.7254 34.9607 19.3134 34.932 19.877C35.0242 19.8422 35.1308 19.836 35.1554 19.7869C35.1841 19.7315 35.141 19.6372 35.1308 19.5593C35.1144 19.4425 35.0488 19.3011 35.0939 19.215C35.3562 18.7087 35.6227 18.2024 35.9302 17.7248C36.1331 17.4112 36.4037 17.1427 36.6517 16.8578C36.8136 16.6713 36.9899 16.4991 37.1518 16.3126C37.3056 16.1363 37.4326 15.9313 37.6007 15.7735C37.9451 15.4537 38.2894 15.1278 38.6707 14.8572C39.0232 14.6051 39.427 14.4268 39.8042 14.2054C39.9026 14.148 39.9661 14.0312 40.0645 13.9779C40.3986 13.8037 40.7245 13.5905 41.0832 13.4983C41.4214 13.4101 41.6018 13.1785 41.7166 12.9305C41.9482 12.4304 42.1675 11.9097 42.1245 11.3317C42.1224 11.2989 42.1183 11.262 42.1265 11.2292C42.2659 10.6778 42.1286 10.1265 42.1142 9.57508C42.1019 9.10159 41.9298 8.65269 41.6756 8.24889C41.4891 7.95168 41.2779 7.66883 41.0545 7.40031C40.9336 7.25683 40.7512 7.16663 40.6179 7.03135C40.5011 6.91451 40.4088 6.77103 40.3125 6.63575C39.9026 6.06183 39.7509 5.37517 39.5008 4.7336C39.3512 4.3503 39.1831 3.91781 39.4373 3.48941C39.4455 3.47507 39.4475 3.45662 39.4475 3.44022C39.4106 3.01388 39.6135 2.67362 39.7939 2.30671C39.8841 2.12429 39.9764 1.96236 40.0891 1.79633C40.1793 1.6631 40.2982 1.6385 40.4027 1.56266C40.6343 1.39458 40.8106 1.15067 41.0176 0.943648C41.0668 0.894454 41.1467 0.826811 41.198 0.83911C41.4911 0.902651 41.7268 0.818609 41.9277 0.605437C41.9564 0.574691 42.0015 0.527552 42.0261 0.533701C42.4135 0.644387 42.5939 0.254933 42.8972 0.183192C43.2662 0.0971033 43.6433 0.033556 44.0205 0.0110089C45.0064 -0.0484334 45.9595 0.138102 46.8983 0.443512C47.4046 0.607491 47.9273 0.744818 48.452 0.835006C49.442 1.00513 50.1348 1.59136 50.719 2.34976C50.8789 2.55884 51.0244 2.77815 51.1904 2.98312C51.6455 3.54065 51.9161 4.17402 52.0575 4.88323C52.162 5.41206 52.367 5.9204 52.4859 6.44718C52.5576 6.76489 52.5638 7.099 52.5699 7.42696C52.5802 8.17306 52.5802 8.92121 52.5638 9.66732C52.5556 10.0322 52.5248 10.3909 52.4018 10.7537C52.2789 11.1124 52.2912 11.5162 52.2215 11.8974C52.1723 12.168 52.0903 12.4324 52.0124 12.6968C51.7644 13.5454 51.6496 14.4186 51.5348 15.2918C51.4303 16.0973 51.2827 16.8988 51.2171 17.7064C51.1597 18.4176 51.1577 19.1391 51.1843 19.8524C51.2171 20.6887 51.2909 21.525 51.3811 22.3572C51.418 22.6954 51.5492 23.0213 51.6435 23.3534C51.6947 23.5317 51.7808 23.7018 51.8095 23.8843C51.9079 24.5258 52.2502 25.0547 52.5781 25.5917C52.6581 25.7229 52.7134 25.8664 52.779 26.0057C52.7585 26.0201 52.7401 26.0324 52.7196 26.0467C52.4019 25.7311 52.0821 25.4175 51.7685 25.0998C51.7459 25.0772 51.7664 25.0178 51.7541 24.9809C51.6885 24.7861 51.7152 24.534 51.4036 24.4992C51.3462 24.493 51.2827 24.3209 51.2643 24.2163C51.2458 24.1015 51.0183 23.749 50.9076 23.7531C50.8625 23.7551 50.8133 23.8351 50.7805 23.8904C50.7395 23.9622 50.7129 24.0442 50.6801 24.12C50.5817 24.0606 50.4751 24.0093 50.3931 23.9335C50.3767 23.9171 50.4362 23.7695 50.4915 23.7367C50.7354 23.5953 50.5099 23.4354 50.5099 23.2898C50.5099 23.2632 50.3521 23.2304 50.264 23.2099C50.1902 23.1935 50.1102 23.2079 50.0405 23.1833C49.8294 23.1095 49.647 23.0767 49.5302 23.3349C49.5056 23.3862 49.3887 23.3964 49.3088 23.4272C49.3272 23.0828 49.315 22.7856 49.3621 22.4986C49.4441 22.0088 49.563 21.525 49.6634 21.0372C49.6757 20.9798 49.6982 20.9101 49.6777 20.863C49.5753 20.6088 49.606 20.3895 49.7966 20.1845C49.8417 20.1353 49.8561 20.0144 49.8294 19.9467C49.686 19.586 49.8397 19.2744 49.936 18.9403C50.0098 18.682 49.9852 18.3951 49.9996 18.1204C50.0057 18.0138 49.9729 17.899 49.9996 17.8007C50.0836 17.5014 50.1553 17.1919 50.2906 16.9152C50.471 16.5483 50.4423 16.1506 50.514 15.7694C50.5591 15.5336 50.635 15.2774 50.4607 15.0335C50.4157 14.97 50.5079 14.8081 50.5366 14.6912C50.5673 14.5682 50.6186 14.4493 50.6268 14.3243C50.6452 14.0476 50.6534 13.7709 50.6432 13.4942C50.6391 13.404 50.5919 13.2851 50.5223 13.2298C50.1185 12.91 50.0836 12.621 50.4116 12.2213C50.512 12.0983 50.6104 11.9692 50.6801 11.8298C50.7088 11.7703 50.6924 11.6412 50.6473 11.6043C50.5694 11.5408 50.4526 11.5244 50.2865 11.4649C50.2886 11.4178 50.3091 11.3071 50.2947 11.2005C50.2722 10.9976 50.2537 10.7885 50.1881 10.5999C50.1246 10.4196 50.0733 10.274 50.2414 10.1224C50.4074 9.97477 50.3378 9.59967 50.1225 9.53613C49.852 9.45619 49.811 9.25942 49.7433 9.0278C49.6839 8.82488 49.5138 8.65474 49.3949 8.46821C49.3273 8.36368 49.2166 8.25709 49.2084 8.1464C49.1899 7.89429 49.2248 7.63807 49.2412 7.32651C48.9665 7.63192 48.7103 7.9189 48.4377 8.22226C48.2532 7.96399 48.0913 7.75696 47.9519 7.53969C47.8453 7.37161 47.7879 7.14614 47.5071 7.33472C47.4743 7.18304 47.4497 7.0744 47.4271 6.96577C47.4046 6.96372 47.38 6.96166 47.3574 6.95961C47.339 7.0211 47.3103 7.0826 47.3083 7.14409C47.3042 7.20969 47.3329 7.27732 47.3349 7.34496C47.337 7.4454 47.3288 7.54788 47.3144 7.64832C47.3124 7.66062 47.2078 7.67497 47.2058 7.66677C47.1689 7.57044 47.1381 7.47 47.1156 7.36956C47.0951 7.27527 47.0848 7.18098 47.0705 7.08464C47.0377 7.08054 47.0028 7.0785 46.97 7.0744C46.927 7.35316 46.884 7.63398 46.8368 7.93939C46.7118 7.8902 46.638 7.86149 46.5253 7.8164C46.5991 8.00908 46.6995 8.18741 46.4392 8.33499C46.3982 8.17511 46.3613 8.03573 46.3367 7.93529C46.185 7.96193 46.0374 7.97628 45.898 8.01318C45.8365 8.02958 45.7402 8.10131 45.7464 8.13411C45.7607 8.212 45.8078 8.32064 45.8714 8.34729C46.2608 8.50717 46.3326 8.5994 46.3531 9.00524C46.3572 9.07288 46.4002 9.13848 46.4248 9.20613C46.4761 9.17333 46.5273 9.13849 46.5785 9.10569C46.7118 9.01755 46.845 8.9294 47.0213 8.81462C46.9229 9.29836 46.474 9.62426 46.1051 9.49308C46.0026 9.45619 45.9021 9.24097 45.9083 9.11183C45.9206 8.90481 45.8878 8.85562 45.6808 8.88021C45.6152 8.88841 45.5004 8.77773 45.4676 8.69574C45.4246 8.59121 45.4491 8.46207 45.4327 8.34524C45.3999 8.11157 45.2749 8.05007 45.0761 8.1751C44.9367 8.26324 44.8793 8.2079 44.8383 8.07467C44.7707 7.85125 44.7092 7.62373 44.619 7.40851C44.5862 7.33062 44.4755 7.28757 44.3997 7.22813C44.3689 7.30807 44.3115 7.38801 44.3095 7.46999C44.3033 7.85944 44.3361 8.25094 44.164 8.62194C44.0984 8.76338 44.0389 8.87816 43.8586 8.87611C43.8135 8.87611 43.7684 8.92941 43.7233 8.9581C43.752 8.995 43.7725 9.05035 43.8114 9.06469C44.0246 9.14668 44.0943 9.30861 44.1086 9.52178C44.123 9.71651 44.1804 9.87434 44.4407 9.82105C44.4878 9.8108 44.6108 9.92353 44.6067 9.97272C44.5964 10.1019 44.5637 10.2453 44.4919 10.3519C44.3648 10.5405 44.2152 10.7188 44.0492 10.8726C43.9754 10.9402 43.8298 10.9853 43.7335 10.9627C43.5408 10.9177 43.4671 11.0037 43.463 11.1595C43.4548 11.4116 43.4445 11.672 43.4896 11.9179C43.5244 12.1003 43.5326 12.2479 43.4138 12.3914C43.2641 12.5718 43.1883 12.7645 43.2846 12.9981C43.3051 13.0473 43.2867 13.1129 43.2867 13.1375C43.1063 13.2359 42.9526 13.3179 42.7865 13.4101C42.9792 13.6868 43.1678 13.5516 43.2969 13.4532C43.4117 13.365 43.4609 13.1949 43.5491 13.0678C43.6023 12.992 43.6741 12.8792 43.7417 12.8772C43.8135 12.8751 43.8996 12.9735 43.959 13.0453C43.9918 13.0842 43.9979 13.1601 43.9918 13.2154C43.9303 13.7524 43.8832 14.2936 43.7827 14.8244C43.7499 14.9966 43.5757 15.1401 43.4691 15.2938C43.3338 15.177 43.2006 15.0889 43.1042 14.97C43.0243 14.8716 42.9915 14.7343 42.9321 14.6174C42.8993 14.5559 42.8521 14.5047 42.8111 14.4473C42.7681 14.5026 42.7209 14.5539 42.684 14.6133C42.6635 14.6482 42.6636 14.6953 42.6533 14.7363C42.5139 15.2467 41.9871 15.2528 41.6469 15.0315C41.364 14.847 41.3558 14.8449 41.0894 15.0602C40.9315 15.1873 40.7286 15.2795 40.5318 15.3287C40.3473 15.3738 40.2449 15.4312 40.2285 15.632C40.2203 15.7284 40.1506 15.8206 40.1096 15.9149C40.0297 15.8637 39.9518 15.8124 39.8698 15.7591C39.6607 15.9661 39.6689 16.0174 39.8923 16.1916C40.0235 16.2941 40.1383 16.4212 40.2449 16.5503C40.2982 16.6139 40.3187 16.7061 40.3535 16.786C40.2613 16.8106 40.1629 16.8639 40.0747 16.8537C39.7898 16.8188 39.507 16.7573 39.2221 16.7143C39.138 16.702 39.0478 16.7205 38.9597 16.7266C38.9986 16.8086 39.054 16.8844 39.0765 16.9705C39.1708 17.3169 39.3635 17.5567 39.7345 17.6244C39.755 17.6285 39.7673 17.6777 39.8103 17.7535C39.6853 17.7535 39.591 17.7412 39.5029 17.7576C39.4291 17.7699 39.3614 17.815 39.2917 17.8457C39.3266 17.9134 39.3532 17.9913 39.4004 18.0487C39.4557 18.1143 39.5295 18.1614 39.5972 18.2147C39.5049 18.266 39.4147 18.3623 39.3225 18.3623C38.9453 18.3582 38.5682 18.3213 38.191 18.3069C38.107 18.3028 38.0189 18.3377 37.9369 18.3623C37.8631 18.3848 37.7934 18.4299 37.7176 18.4443C37.5782 18.4709 37.4367 18.4832 37.2973 18.5037C37.2912 18.5263 37.2851 18.5488 37.2789 18.5734C37.408 18.6349 37.5392 18.6902 37.6643 18.7579C37.7258 18.7907 37.8077 18.846 37.8139 18.8993C37.82 18.9526 37.7565 19.0428 37.7012 19.0674C37.4306 19.1842 37.3732 19.3667 37.5126 19.6126C37.2953 19.7602 36.9735 19.7336 36.8116 19.5675C36.541 19.2888 36.2848 19.3093 36.0614 19.6044C35.922 19.7889 35.7047 19.918 35.7109 20.1906C35.7109 20.2091 35.592 20.2603 35.551 20.2419C35.3419 20.1517 35.1615 20.1066 34.9832 20.3218C34.9381 20.3772 34.7741 20.369 34.6757 20.3444C34.1613 20.2193 33.6591 20.0369 33.1118 20.123C32.8843 20.1579 32.585 20.3567 32.5748 20.5514C32.5625 20.8056 32.7654 20.9142 32.9581 21.0003C33.0995 21.0638 33.2266 21.1069 33.1938 21.2996C33.1138 21.7976 33.0462 21.7874 32.6731 21.5927C32.4087 21.4553 32.2632 21.4758 32.0726 21.6562C32.0992 21.6849 32.1361 21.7095 32.1546 21.7443C32.1894 21.8058 32.214 21.8735 32.2427 21.9391C32.1669 21.9268 32.0787 21.9329 32.0172 21.894C31.925 21.8366 31.8635 21.728 31.7692 21.6808C31.6811 21.6378 31.5335 21.5988 31.472 21.6419C31.3716 21.7116 31.2691 21.8468 31.2609 21.9616C31.2465 22.1563 31.6462 22.39 31.8574 22.349C31.9373 22.3347 32.0316 22.3121 32.0992 22.3408C32.2755 22.4208 32.3124 22.8963 32.1443 22.9926C32.1013 23.0193 31.9434 22.9516 31.9209 22.8942C31.8225 22.6626 31.6216 22.5909 31.4167 22.5581C31.3121 22.5417 31.1563 22.6134 31.0867 22.6975C30.9862 22.8164 30.9432 22.9824 30.8796 23.1279C30.8181 23.2673 30.7321 23.4149 30.566 23.3452C30.4922 23.3144 30.443 23.1443 30.441 23.0377C30.4389 22.7733 30.3631 22.6893 30.1069 22.7651C29.9614 22.8082 29.8384 22.8246 29.7625 22.6647C29.6846 22.5007 29.8138 22.4413 29.9163 22.3654C30.0577 22.2588 30.0495 21.9227 29.8794 21.8468C29.6539 21.7443 29.5965 21.5496 29.5043 21.361C29.451 21.2545 29.3731 21.1581 29.2993 21.0495C29.0492 21.318 29.0513 21.4492 29.1948 21.73C29.2767 21.8899 29.3013 22.0826 29.3362 22.2629C29.3464 22.3162 29.2931 22.3798 29.2685 22.4392C29.2091 22.4146 29.1394 22.4003 29.0902 22.3613C28.9918 22.2834 28.9139 22.1727 28.8094 22.1092C28.7213 22.0559 28.6044 22.0231 28.5019 22.0252C28.2068 22.0313 28.0612 21.9001 27.9772 21.6111C27.8337 21.1212 27.9219 20.6231 27.8747 20.1292C27.846 19.8114 27.846 19.4896 27.8132 19.1719C27.7866 18.9055 27.6021 18.844 27.3807 19.0059C27.2536 19.0981 27.1163 19.1822 26.9749 19.2519C26.8376 19.3195 26.4481 19.1883 26.3989 19.0489C26.3702 18.967 26.4194 18.8583 26.4174 18.762C26.4153 18.6656 26.4153 18.4996 26.3723 18.4832C26.1427 18.4012 26.0894 18.2455 26.1119 18.0302C26.114 18.0118 26.0853 17.9913 26.0259 17.9093C25.95 18.0794 25.9029 18.2209 25.827 18.3479C25.7512 18.4771 25.659 18.6759 25.5544 18.6902C25.3986 18.7107 25.2326 18.6083 25.1711 18.3971C25.1219 18.2291 24.9887 18.1655 24.8165 18.311C24.7079 18.4033 24.5664 18.4545 24.4476 18.5345C24.3143 18.6247 24.1893 18.7292 24.0602 18.8276C24.0725 18.8481 24.0827 18.8686 24.095 18.887C23.9536 18.8706 23.8121 18.8522 23.6707 18.8399C23.4657 18.8214 23.4166 18.7128 23.4596 18.5242C23.4821 18.4217 23.4985 18.225 23.4801 18.2209C23.2669 18.1696 23.0312 18.0835 22.8365 18.1368C22.7258 18.1676 22.6623 18.4299 22.6131 18.598C22.6008 18.6411 22.7258 18.721 22.7852 18.7866C22.8283 18.8337 22.9103 18.9239 22.9062 18.928C22.7893 19.053 22.6479 19.2785 22.5393 19.2642C22.2195 19.2232 22.0535 19.4199 21.8526 19.5757C21.6784 19.711 21.621 19.6905 21.5451 19.4712C21.5164 19.3851 21.4386 19.3113 21.3689 19.2457C21.3566 19.2355 21.2397 19.2908 21.2356 19.3236C21.2254 19.4343 21.209 19.5696 21.2623 19.6516C21.3525 19.7909 21.4939 19.8955 21.6148 20.0164C21.7481 20.1497 21.7809 20.2808 21.6312 20.4325C21.5574 20.5084 21.5164 20.6149 21.4631 20.7092C21.4386 20.7523 21.4222 20.8302 21.3935 20.8363C21.0901 20.8958 21.1003 21.1745 21.002 21.3775C20.9282 21.5291 20.9815 21.5968 21.1495 21.5988C21.4816 21.6009 21.6312 21.8858 21.4775 22.1871C21.3484 22.4413 21.1782 22.6237 20.8626 22.6544C20.8933 22.6749 20.9261 22.6913 20.9548 22.7139C21.0389 22.7795 21.1926 22.8492 21.1905 22.9106C21.1864 23.0275 21.1044 23.1505 21.0286 23.2529C20.9384 23.3759 20.8236 23.4805 20.7191 23.5912C20.6801 23.6322 20.6371 23.6731 20.5879 23.7039C20.4649 23.7818 20.344 23.8576 20.2149 23.9232C20.1513 23.956 20.057 24.0011 20.0078 23.9765C19.8398 23.8925 19.6819 23.7879 19.5303 23.6752C19.5077 23.6588 19.5302 23.5543 19.5548 23.503C19.5917 23.4292 19.686 23.3698 19.6942 23.2981C19.7065 23.1915 19.6635 23.0787 19.645 22.968C19.5507 22.9988 19.4503 23.0193 19.3622 23.0623C19.2843 23.1013 19.2207 23.1669 19.1285 23.2386C19.0486 23.0316 18.9584 22.8635 18.9256 22.6872C18.9112 22.6093 18.9953 22.4905 19.065 22.4228C19.2085 22.2814 19.192 22.1195 19.0301 22.0826C18.6325 21.9924 18.7473 21.6644 18.6837 21.4266C18.6448 21.2832 18.653 21.1233 18.6694 20.9736C18.6776 20.8855 18.7411 20.8056 18.7801 20.7215C18.86 20.781 18.9666 20.8261 19.0137 20.904C19.1388 21.1089 19.1839 21.4143 19.3581 21.525C19.7229 21.7566 20.1349 21.9083 20.4629 22.2055C20.5244 22.2609 20.6351 22.2588 20.7334 22.2875C20.8113 22.0928 20.8544 21.9391 20.5633 21.9186C20.59 21.8981 20.6166 21.8776 20.6433 21.8571C20.5777 21.771 20.5182 21.6808 20.4465 21.6009C20.342 21.4861 20.2231 21.3815 20.1165 21.2668C19.8049 20.9265 19.5077 20.5719 19.3806 20.1169C19.3171 19.8852 19.2351 19.7807 18.9748 19.8483C18.6612 19.9303 18.5833 19.8647 18.4234 19.5573C18.3824 19.4773 18.2758 19.4138 18.1856 19.3831C18.1405 19.3687 18.038 19.4322 18.0094 19.4855C17.9868 19.5286 18.0278 19.6147 18.0585 19.6721C18.2 19.9365 18.3517 20.1947 18.4869 20.4633C18.5177 20.5268 18.491 20.617 18.491 20.6969C18.4644 20.7092 18.4378 20.7215 18.4111 20.7338C18.3004 20.617 18.159 20.5166 18.0831 20.3813C17.9151 20.0841 17.7818 19.7438 17.8905 19.4138C17.9438 19.2519 18.1733 19.1166 18.3537 19.0387C18.4992 18.9772 18.6038 18.9547 18.6181 18.7681C18.6325 18.5878 18.7637 18.5673 18.9358 18.6554C19.149 18.7661 19.3745 18.8583 19.602 18.9301C19.6717 18.9506 19.7701 18.8768 19.8541 18.846C20.0119 18.7886 20.1349 18.7989 20.1144 19.01C20.0898 19.256 20.2354 19.2765 20.4178 19.2539C20.5182 19.2416 20.6187 19.2211 20.7191 19.2088C20.9507 19.1822 21.0286 19.0613 20.9507 18.8419C20.8277 18.4955 20.6515 18.3705 20.2968 18.3459C19.9443 18.3213 19.6471 18.184 19.4544 17.8683C19.436 17.8396 19.4175 17.7966 19.3909 17.7925C19.1244 17.7392 19.0998 17.4973 19.0158 17.3067C18.9092 17.0668 18.6858 16.9029 18.653 16.6057C18.6325 16.4212 18.4193 16.454 18.2738 16.538C18.1877 16.5893 18.118 16.6754 18.0278 16.7143C17.8802 16.7778 17.7347 16.827 17.6179 16.6262C17.4457 16.331 17.1854 16.3023 16.9045 16.5052C16.7734 16.6016 16.6524 16.7389 16.4516 16.6426C16.4311 16.6323 16.2917 16.7655 16.2917 16.8332C16.2896 17.28 16.2958 17.278 15.8715 17.442C15.7096 17.5034 15.5497 17.5731 15.359 17.651C15.3877 17.7064 15.4185 17.7699 15.4513 17.8314C15.5394 18.0015 15.6132 18.1594 15.3488 18.2557C15.2955 18.2741 15.2853 18.3971 15.2422 18.4627C15.2012 18.5242 15.1479 18.6042 15.0864 18.6185C15.029 18.6308 14.9553 18.5673 14.8876 18.5365C14.9184 18.475 14.9347 18.3951 14.9839 18.352C15.1541 18.2045 15.109 18.0692 14.9696 17.9441C14.8876 17.8704 14.7728 17.8314 14.7031 17.7494C14.4818 17.4932 14.2317 17.2472 14.0821 16.9521C14.0165 16.8229 14.162 16.5831 14.2194 16.3945C14.2358 16.3392 14.2932 16.2941 14.3014 16.2388C14.3116 16.1773 14.3096 16.0912 14.2727 16.0543C14.2378 16.0194 14.1518 16.0194 14.0903 16.0276C13.8012 16.0625 13.5102 16.1035 13.2212 16.1424C13.1371 16.1547 13.0551 16.1711 12.9711 16.1855C12.9977 16.2982 12.9998 16.4273 13.0592 16.5196C13.2007 16.7368 13.379 16.9295 13.5225 17.1447C13.5553 17.1939 13.5122 17.2985 13.4876 17.3723C13.4856 17.3805 13.3585 17.3805 13.338 17.3497C13.1433 17.0833 12.9609 17.1632 12.7702 17.3538C12.7231 17.3989 12.6554 17.4235 12.5837 17.4666C12.7087 17.7125 12.5755 17.8519 12.3931 17.9933C12.3193 18.0507 12.2578 18.1963 12.2742 18.2885C12.3111 18.4996 12.2025 18.764 12.4648 18.9075C12.5468 18.9506 12.6227 19.0079 12.7087 19.0366C13.0203 19.1473 13.2806 19.3339 13.4794 19.5921C13.5696 19.711 13.7029 19.8647 13.4979 20.041C13.4118 19.9119 13.3298 19.7992 13.256 19.6823C13.1556 19.5224 12.9957 19.5265 12.885 19.6106C12.8379 19.6475 12.8727 19.8381 12.9158 19.9385C12.9568 20.0349 13.0572 20.1046 13.131 20.1866C13.1146 20.2071 13.1002 20.2255 13.0838 20.246C12.9424 20.1825 12.7989 20.1271 12.6636 20.0513C12.5366 19.9795 12.4197 19.8873 12.2516 19.7725C12.2496 19.7746 12.1758 19.8237 12.1594 19.8873C12.1492 19.9262 12.2188 19.9959 12.2639 20.039C12.3787 20.1497 12.4833 20.2829 12.6186 20.3567C12.8194 20.4694 13.0408 20.5453 13.2601 20.619C13.2847 20.6272 13.3729 20.5268 13.3893 20.4653C13.4405 20.2685 13.5922 20.2501 13.7275 20.2972C13.8832 20.3526 14.0165 20.4653 14.1599 20.5535C14.0657 20.6641 13.9734 20.7748 13.8381 20.9347C13.8443 21.195 13.8361 21.2032 13.4466 21.2606C13.5348 21.4471 13.6598 21.5558 13.875 21.5496C14.1333 21.5435 14.3178 21.6583 14.4408 21.8981C14.5207 22.0539 14.6662 22.1727 14.7585 22.3244C14.9163 22.5827 15.0577 22.8512 15.2033 23.1156C15.2238 23.1525 15.2258 23.214 15.2545 23.2304C15.7628 23.501 15.7198 24.1569 16.1359 24.491C16.1769 24.5238 16.1933 24.5935 16.2035 24.6509C16.2486 24.8579 16.2917 25.0649 16.3245 25.274C16.3347 25.3416 16.3101 25.4134 16.304 25.4831C16.2814 25.4933 16.2568 25.5036 16.2343 25.5118C16.1298 25.3929 16.0252 25.276 15.8899 25.1244C15.8797 25.4769 16.0109 25.7249 16.2363 25.9094C16.4352 26.0713 16.4536 26.2579 16.2404 26.4075C16.1523 26.469 16.0601 26.5264 15.9371 26.6104C15.9309 26.5325 15.9186 26.4731 15.9207 26.4157C15.9412 26.0078 15.8407 25.6511 15.6276 25.2863C15.3836 24.8661 14.9634 24.7821 14.6088 24.5607C14.4715 24.4746 14.3403 24.3004 14.3014 24.1425C14.2091 23.7695 14.1128 23.6834 13.7418 23.6649C13.297 23.6424 12.842 23.6239 12.4115 23.5194C11.9524 23.4067 11.5486 23.1341 11.2186 22.7918C10.8271 22.388 10.4274 21.9842 10.0953 21.5332C9.76942 21.0905 9.5337 20.5821 9.24468 20.1128C9.1381 19.9426 9.01512 19.7643 8.85524 19.6475C8.3961 19.3154 8.01894 18.9178 7.74428 18.4238C7.59465 18.1532 7.40197 17.8929 7.32408 17.6018C7.24004 17.2903 7.18265 16.9234 7.27284 16.6282C7.36918 16.3166 7.38148 16.0071 7.35483 15.7161C7.33024 15.4312 7.35074 15.1565 7.39378 14.89C7.47782 14.3653 7.61514 13.8488 7.74428 13.3322C7.79757 13.1191 7.9103 12.912 7.61514 12.7419C8.04764 12.7419 8.08454 12.4242 8.17473 12.1454C8.20547 12.0532 8.2813 11.9753 8.3305 11.8872C8.37149 11.8154 8.41864 11.7416 8.43709 11.6638C8.51498 11.3174 8.60517 10.9935 8.89214 10.7373C9.12581 10.5261 9.25903 10.19 9.5091 10.0137C9.80631 9.8067 10.0605 9.50333 10.452 9.43979C10.534 9.42544 10.616 9.39265 10.6877 9.3537C11.2124 9.06264 11.7761 9.10979 12.3131 9.24712C12.9035 9.39675 13.502 9.57713 14.0349 9.85794C14.5781 10.1429 15.191 10.3724 15.5271 10.9627C15.5927 11.0755 15.7526 11.1329 15.8612 11.2251C16.099 11.426 16.306 11.6822 16.5725 11.8298C17.048 12.0942 17.4928 12.3914 17.911 12.7399C18.0913 12.8895 18.3414 12.9571 18.5587 13.0617C18.5894 13.076 18.6366 13.0801 18.6489 13.1027C18.8108 13.447 19.1347 13.4122 19.4319 13.447C19.7516 13.4839 20.0693 13.5311 20.387 13.5823C20.4383 13.5905 20.4834 13.6377 20.5264 13.6766C20.551 13.6971 20.5531 13.7463 20.5777 13.7627C20.8236 13.9123 21.0553 14.1193 21.3238 14.1931C21.7071 14.2956 21.9592 14.5662 22.2687 14.7671C22.8529 15.1442 23.0066 15.8001 23.3366 16.3453C23.4002 16.4519 23.5395 16.5565 23.6543 16.5729C23.7486 16.5852 23.9085 16.4909 23.9577 16.3986C24.1381 16.0645 24.3574 15.8063 24.7448 15.6956C24.9129 15.6484 25.0502 15.4947 25.2121 15.4168C25.4704 15.2918 25.7594 15.2836 26.0341 15.2303C26.4235 15.1544 26.7494 15.3102 27.0999 15.3369C27.3766 15.3574 27.6739 15.5234 27.9034 15.6997C28.1494 15.8862 28.3277 16.1609 28.5327 16.4007C28.5511 16.4232 28.5696 16.4642 28.5634 16.4888C28.4445 16.8537 28.6475 17.1591 28.7418 17.485C28.7623 17.5526 28.7274 17.6367 28.7438 17.7064C28.7746 17.8417 28.8217 17.9708 28.8627 18.104C28.957 18.0692 29.0513 18.0302 29.1476 17.9974C29.4141 17.9072 29.6764 17.7863 29.9511 17.7351C30.3488 17.6613 30.7628 17.5711 31.1584 17.6059C31.8738 17.6695 32.5502 17.8868 33.0872 18.4156C33.1589 18.4873 33.2922 18.4914 33.3783 18.5529C33.6673 18.7579 33.9604 18.9588 34.2227 19.1945C34.3334 19.2949 34.3847 19.4835 34.4749 19.6495ZM30.6132 20.8261C30.8919 21.0925 30.894 21.0946 31.183 20.8445C31.3162 20.7297 31.4433 20.6067 31.5601 20.4756C31.6052 20.4243 31.6134 20.3362 31.638 20.2665C31.5642 20.2439 31.4884 20.2029 31.4146 20.2029C31.0067 20.2111 30.7874 20.4817 30.6132 20.8261ZM20.6105 19.7541C20.5756 19.711 20.5264 19.6024 20.4444 19.5614C20.3911 19.5347 20.2743 19.5901 20.2108 19.6413C20.0775 19.7459 19.9484 19.8647 19.8418 19.9959C19.8049 20.041 19.8029 20.1865 19.8357 20.207C19.9668 20.2931 20.1144 20.369 20.2661 20.4079C20.3235 20.4223 20.4465 20.3444 20.4752 20.2808C20.5346 20.1374 20.5572 19.9734 20.6105 19.7541ZM30.443 20.0513C30.4492 19.9549 30.4697 19.875 30.4512 19.8053C30.4287 19.7172 30.3877 19.5839 30.3283 19.5675C30.1909 19.5306 30.0372 19.5388 29.8937 19.5593C29.8568 19.5655 29.8097 19.6905 29.8199 19.752C29.8281 19.8094 29.8978 19.8791 29.9572 19.9037C30.1048 19.9631 30.2606 19.998 30.443 20.0513ZM12.5796 15.5419C12.5981 15.5603 12.6698 15.6628 12.6964 15.6525C12.8563 15.589 13.006 15.4988 13.1597 15.4189C13.0633 15.3492 12.9691 15.2262 12.8686 15.22C12.7251 15.2077 12.5673 15.2754 12.5796 15.5419ZM12.35 16.331C12.4341 16.1035 12.2189 16.0604 12.1184 15.962C12.0692 15.9128 11.9503 15.9088 11.8683 15.9211C11.8314 15.9272 11.772 16.044 11.7884 16.0727C11.8294 16.1445 11.8991 16.2203 11.9749 16.2511C12.0856 16.2982 12.2127 16.3044 12.35 16.331ZM29.9593 20.6272C29.8589 20.5207 29.7728 20.4161 29.7605 20.4223C29.6334 20.5043 29.5186 20.6047 29.4018 20.699C29.4715 20.7584 29.5617 20.8835 29.6068 20.8671C29.7236 20.8302 29.8179 20.7297 29.9593 20.6272ZM20.1841 22.4208C20.1083 22.3839 20.0345 22.3203 19.9668 22.3244C19.9197 22.3265 19.8316 22.4372 19.8418 22.4782C19.8767 22.6196 19.9484 22.7508 20.0058 22.8861C20.0591 22.7467 20.1124 22.6073 20.1841 22.4208ZM16.0252 16.454C16.0519 16.4396 16.0805 16.4253 16.1072 16.4109C16.0949 16.3043 16.1031 16.1896 16.0642 16.0932C16.0416 16.0379 15.9412 16.0153 15.8756 15.9784C15.8551 16.042 15.7977 16.124 15.8182 16.1691C15.8694 16.2716 15.9555 16.3597 16.0252 16.454ZM45.4451 7.97834C45.5475 7.8492 45.6254 7.78566 45.65 7.70367C45.6603 7.66882 45.5455 7.54993 45.5147 7.55813C45.443 7.57863 45.361 7.64422 45.3364 7.71186C45.318 7.76106 45.3836 7.84101 45.4451 7.97834ZM15.5968 15.1135C15.5989 15.0786 15.603 15.0438 15.605 15.011C15.4656 15.0028 15.3262 14.9925 15.1869 14.9843C15.1848 15.0171 15.1828 15.0499 15.1787 15.0827C15.3078 15.2118 15.4513 15.1832 15.5968 15.1135Z" fill="black"/>
<path d="M13.0988 42.9305C13.0804 42.6722 13.0619 42.416 13.0455 42.1598C13.0435 42.1208 13.0476 42.0716 13.0681 42.0389C13.23 41.7847 13.4001 41.5367 13.5579 41.2804C13.6112 41.1923 13.6338 41.0857 13.6789 40.9914C13.7096 40.9299 13.7404 40.8398 13.7937 40.8213C14.1913 40.6758 14.2282 40.3253 14.3082 39.985C14.3963 39.6058 14.4885 39.2205 14.6361 38.8618C14.7939 38.4764 15.0235 38.1239 15.21 37.7488C15.415 37.3388 15.8086 37.142 16.1488 36.8817C16.2493 36.8059 16.3681 36.7485 16.4583 36.6604C16.7084 36.4123 17.0056 36.3467 17.3479 36.3385C17.7148 36.3303 18.0243 36.4164 18.3256 36.6378C18.7581 36.9576 19.289 37.0293 19.8014 37.1543C20.3344 37.2835 20.8222 37.5274 21.1604 37.9906C21.3797 38.2919 21.5929 38.5973 21.804 38.9048C21.8348 38.9499 21.8348 39.0155 21.8532 39.0708C21.9024 39.2102 21.9516 39.3517 22.009 39.489C22.0398 39.5648 22.1094 39.6304 22.1238 39.7083C22.175 40.0014 22.2222 40.2986 22.2468 40.5958C22.3062 41.264 22.3226 41.9384 22.4128 42.6025C22.4825 43.1191 22.6403 43.6253 22.7551 44.1357C22.7654 44.1829 22.7551 44.2362 22.7428 44.2833C22.6526 44.6584 22.792 44.9864 22.874 45.3451C22.9519 45.6833 23.1261 45.9108 23.3003 46.1691C23.3475 46.2388 23.3967 46.3043 23.4397 46.374C23.5996 46.6262 23.7533 46.8701 23.6303 47.2001C23.5361 47.4522 23.5443 47.7166 23.7431 47.938C23.864 48.0712 23.8866 48.1922 23.7779 48.3684C23.6857 48.516 23.6775 48.7148 23.616 48.885C23.5893 48.9567 23.5217 49.01 23.4848 49.0592C23.1364 48.68 22.7838 48.3254 22.835 47.772C22.3575 47.6941 22.0254 47.4173 21.6933 47.1324C21.6052 47.0566 21.4761 47.0259 21.3654 46.9746C21.3121 46.95 21.2527 46.9377 21.2076 46.9049C20.98 46.7368 20.7607 46.5544 20.527 46.3925C20.1232 46.1117 19.6846 46.1465 19.2398 46.2736C19.0246 46.3351 18.8094 46.4212 18.5921 46.4376C18.3933 46.4519 18.3912 46.5954 18.3379 46.7061C18.2293 46.9336 18.2129 47.155 18.4097 47.3579C18.5081 47.4604 18.5634 47.6059 18.6638 47.7043C18.7725 47.8089 18.9098 47.8867 19.0389 47.9687C19.1086 48.0138 19.1947 48.0364 19.2562 48.0876C19.4858 48.2803 19.6313 48.2782 19.8486 48.0733C19.8998 48.0241 19.9593 47.9831 19.9777 47.9687C20.1069 48.0671 20.197 48.1491 20.2995 48.2127C20.4348 48.2967 20.4041 48.3848 20.2975 48.4422C19.9121 48.6554 19.9429 48.723 20.2421 49.1924C20.2729 49.2416 20.3405 49.3052 20.3282 49.34C20.2114 49.6844 20.6172 49.7049 20.7013 49.9426C20.7669 50.123 21.0005 50.2439 21.1584 50.3936C21.1809 50.4161 21.1932 50.4489 21.2506 50.5452C21.0825 50.5452 20.9554 50.5657 20.8407 50.5411C20.5475 50.4776 20.2585 50.3956 19.9695 50.3116C19.8916 50.289 19.8158 50.246 19.7502 50.1968C19.3546 49.8934 18.9529 49.5962 18.5716 49.2765C18.2785 49.0325 17.9874 48.7784 17.7456 48.4853C17.639 48.3561 17.6328 48.1245 17.6205 47.938C17.6041 47.69 17.68 47.4194 17.3397 47.3169C17.3028 47.3067 17.2598 47.2165 17.268 47.1714C17.3151 46.9418 17.1593 46.989 17.0261 46.9603C16.8621 46.9254 16.7002 46.8598 16.5526 46.7799C16.3989 46.6958 16.2718 46.5524 16.114 46.4868C15.9643 46.4253 15.8455 46.3781 15.8024 46.2019C15.7922 46.1568 15.6712 46.126 15.5954 46.1137C15.4827 46.0932 15.3658 46.0973 15.251 46.085C15.0686 46.0645 14.8452 45.8923 14.7612 46.2244C14.753 46.2531 14.6935 46.292 14.6689 46.2859C14.63 46.2756 14.5767 46.2347 14.5685 46.1998C14.5131 45.9292 14.466 45.6566 14.4168 45.384C14.3512 45.0233 14.3307 44.6441 14.2077 44.3038C14.0663 43.9103 13.8613 43.529 13.5703 43.2216C13.4473 43.0822 13.2464 43.0166 13.0988 42.9305ZM20.5988 42.457C20.3303 42.1885 20.2688 42.1782 19.9962 42.2869C19.8937 42.3279 19.7789 42.3381 19.6621 42.3627C19.5493 42.5677 19.4181 42.8034 19.2644 43.0842C19.2583 43.0678 19.2829 43.1129 19.2931 43.1621C19.3423 43.3814 19.3915 43.6008 19.4345 43.8201C19.4653 43.9718 19.5575 44.0599 19.7031 44.0168C20.0618 43.9103 20.4 43.9677 20.7423 44.1255C20.7587 44.0845 20.7812 44.0517 20.7771 44.025C20.7423 43.8037 20.8222 43.6704 21.0497 43.6172C21.0928 43.6069 21.1317 43.4778 21.1338 43.4019C21.1358 43.2687 21.0907 43.1375 21.0907 43.0043C21.0907 42.8567 20.894 42.4509 20.7566 42.375C20.7074 42.3996 20.6521 42.4283 20.5988 42.457ZM17.4176 45.5091C17.4115 45.4845 17.4053 45.4599 17.3992 45.4353C17.3172 45.4271 17.2126 45.382 17.1614 45.4168C17.0691 45.4783 17.0118 45.589 16.938 45.6771C16.9954 45.714 17.0835 45.796 17.1061 45.7817C17.2167 45.7058 17.3151 45.6033 17.4176 45.5091Z" fill="black"/>
<path d="M37.7462 48.3274C37.1211 48.3397 36.5902 48.0589 36.0552 47.7986C35.7846 47.6674 35.5059 47.5424 35.2579 47.3743C35.0488 47.2329 34.8602 47.0505 34.6901 46.8619C34.5036 46.6549 34.3273 46.4314 34.1818 46.1957C33.9706 45.8534 33.7841 45.4927 33.5976 45.136C33.4315 44.8183 33.2676 44.5006 33.1261 44.1726C32.997 43.8754 32.9253 43.5516 32.7797 43.2667C32.6055 42.9244 32.7387 42.5697 32.6711 42.2274C32.583 41.7847 32.4825 41.344 32.4067 40.8992C32.3083 40.315 32.2386 39.7247 32.1382 39.1426C32.0726 38.7593 31.9824 38.3801 31.8881 38.005C31.8123 37.6975 31.7159 37.3962 31.6216 37.0949C31.5991 37.0252 31.5519 36.9596 31.5007 36.9043C31.1133 36.482 30.6562 36.1561 30.1376 35.9143C29.9368 35.82 29.7338 35.7236 29.5535 35.5966C29.0472 35.2379 28.4773 35.2174 27.9014 35.2829C27.4217 35.3362 26.938 35.4059 26.4686 35.5166C25.6487 35.7113 24.8227 35.6785 23.9966 35.6314C23.5498 35.6048 23.0989 35.572 22.6643 35.4736C22.3179 35.3957 21.951 35.2727 21.6722 35.0636C21.1332 34.6598 20.6494 34.1843 20.1493 33.7272C20.0529 33.6391 20.0037 33.4997 19.9156 33.3992C19.5958 33.0303 19.274 32.6634 18.9461 32.3006C18.8313 32.1735 18.6899 32.069 18.573 31.9419C18.5054 31.8681 18.4419 31.7779 18.4193 31.6857C18.4029 31.618 18.4521 31.5319 18.4726 31.454C18.5382 31.4766 18.6161 31.4827 18.6673 31.5217C19.0711 31.8271 19.5036 32.1018 19.7434 32.5732C19.7619 32.6101 19.8234 32.6285 19.8685 32.649C19.9074 32.6675 19.971 32.6634 19.9853 32.69C20.1657 33.0159 20.5346 33.102 20.7908 33.3296C21.0327 33.5448 21.2418 33.844 21.5247 33.9547C21.8239 34.0716 22.0473 34.3954 22.4306 34.3216C22.5106 34.3073 22.6315 34.377 22.6971 34.4426C22.8508 34.5963 23.0374 34.6168 23.2157 34.5614C23.3694 34.5143 23.474 34.5266 23.6133 34.6065C24.011 34.83 24.4763 34.9673 24.8801 34.7623C25.2839 34.5594 25.62 34.6475 25.9992 34.7316C26.1304 34.7603 26.2821 34.709 26.4235 34.6865C26.5485 34.668 26.6715 34.6373 26.7966 34.6168C26.9769 34.586 27.1594 34.5676 27.3377 34.5286C27.5386 34.4835 27.7353 34.4159 27.887 34.6352C27.9116 34.6701 27.9752 34.6824 28.0223 34.6947C28.3257 34.7726 28.6885 34.7705 28.9221 34.9447C29.2234 35.1682 29.6047 35.119 29.8773 35.3465C30.0024 35.451 30.1069 35.5781 30.2217 35.6949C30.2504 35.7236 30.277 35.7687 30.3098 35.7769C30.9329 35.9102 31.2855 36.3714 31.6278 36.8489C31.9475 37.2958 32.2796 37.7344 32.5994 38.1813C32.6465 38.2469 32.6649 38.335 32.7018 38.4088C32.7879 38.5789 32.8802 38.7449 32.9642 38.9151C33.0032 38.9971 33.0257 39.0852 33.0524 39.1733C33.1364 39.4562 33.2225 39.737 33.2963 40.0219C33.3455 40.2085 33.3639 40.4052 33.4111 40.5918C33.4951 40.9156 33.5955 41.2354 33.6796 41.5592C33.7226 41.7273 33.739 41.9036 33.78 42.0737C33.8312 42.2828 33.8948 42.4878 33.9604 42.6927C33.985 42.7706 34.028 42.8424 34.0629 42.9182C34.2207 43.2605 34.4339 43.5003 34.8438 43.5905C35.0365 43.6336 35.2148 43.8795 35.3357 44.0743C35.4649 44.2833 35.5141 44.5395 35.6084 44.7712C35.6289 44.8204 35.6904 44.8839 35.7354 44.886C36.0265 44.9044 36.0983 45.1258 36.1761 45.343C36.2417 45.5316 36.3401 45.5747 36.5205 45.466C36.5984 45.4189 36.7132 45.4209 36.8116 45.4271C36.9776 45.4373 37.0842 45.5111 37.0391 45.7079C37.0268 45.7653 37.0596 45.835 37.0719 45.8985C37.1416 45.8842 37.2277 45.8883 37.2789 45.8493C37.4121 45.7468 37.5208 45.6074 37.7216 45.6587C37.7462 45.6648 37.7913 45.6157 37.8139 45.5849C37.9348 45.4168 38.0189 45.2016 38.1767 45.0909C38.3776 44.9495 38.6317 44.845 38.8736 44.8163C39.0048 44.7999 39.1667 44.9638 39.2979 45.0684C39.3327 45.095 39.2999 45.2016 39.304 45.2713C39.3143 45.3922 39.302 45.5234 39.3491 45.628C39.4127 45.7632 39.5254 45.7796 39.6627 45.6792C39.7878 45.587 39.9497 45.548 40.0747 45.4558C40.2756 45.3082 40.4642 45.1401 40.6487 44.97C40.6774 44.9433 40.6835 44.8388 40.6569 44.8101C40.5113 44.6543 40.5503 44.5252 40.6835 44.392C40.7122 44.3633 40.7347 44.3182 40.7368 44.2792C40.7552 43.8201 41.034 43.6274 41.4358 43.4757C41.6182 43.406 41.7658 43.1478 41.8498 42.9428C41.9871 42.6046 42.0589 42.2418 42.1614 41.8892C42.1819 41.8175 42.2044 41.7376 42.2495 41.6802C42.3868 41.5059 42.4135 41.3563 42.2126 41.2046C42.1716 41.1739 42.1757 41.0693 42.1798 40.9997C42.1962 40.7086 42.2229 40.4196 42.2454 40.1285C42.2475 40.0957 42.2393 40.0506 42.2577 40.0301C42.4483 39.8272 42.395 39.5771 42.3643 39.3517C42.2085 38.2038 42.393 37.1113 42.8357 36.0495C42.8972 35.902 42.9259 35.74 42.9792 35.5904C43.0305 35.4449 43.0858 35.3055 43.2949 35.326C43.3502 35.3321 43.467 35.2317 43.4691 35.1784C43.4752 34.955 43.6433 34.8525 43.752 34.6967C44.0615 34.254 44.5288 34.0941 44.9941 33.9158C45.1048 33.8727 45.2134 33.8153 45.3282 33.7989C45.402 33.7887 45.5496 33.8338 45.5537 33.8707C45.5906 34.1351 45.7668 34.0572 45.9206 34.0367C46.2424 33.9916 46.5642 33.9404 46.888 33.9035C46.9372 33.8973 46.9946 33.9609 47.05 33.9937C47.009 34.049 46.9741 34.1084 46.927 34.1556C46.9065 34.1761 46.8614 34.1802 46.8307 34.1761C46.2076 34.1167 45.6889 34.4384 45.1437 34.6516C44.949 34.7275 44.783 34.8915 44.6231 35.0349C44.3997 35.2379 44.1845 35.451 43.9856 35.6765C43.8831 35.7913 43.8134 35.9409 43.7458 36.0823C43.3318 36.9514 43.2252 37.8759 43.3297 38.8146C43.3932 39.3886 43.5736 39.9502 43.6884 40.518C43.7438 40.7906 43.7991 41.0693 43.8032 41.344C43.8094 41.7642 43.7704 42.1824 43.7499 42.6025C43.7479 42.6353 43.7397 42.6702 43.7397 42.703C43.7499 43.4634 43.5962 44.2485 43.3379 44.8388C43.051 45.4968 42.598 46.0256 42.0568 46.4827C41.6305 46.8434 41.1939 47.1939 40.7573 47.5424C40.3556 47.8622 39.9025 48.022 39.3819 48.0507C39.0437 48.0692 38.7137 48.2024 38.3776 48.266C38.1685 48.3029 37.9553 48.307 37.7462 48.3274Z" fill="black"/>
<path d="M10.0075 29.1499C10.3888 29.0721 10.4072 29.0823 10.3437 29.4369C10.2986 29.6952 10.2371 29.9514 10.1571 30.2015C10.0505 30.5335 9.70414 30.6749 9.39053 30.5397C9.34544 30.5192 9.29419 30.5028 9.245 30.5007C9.10357 30.4966 9.05847 30.4167 9.09946 30.2978C9.19785 30.0231 9.2573 29.7239 9.59346 29.607C9.67954 29.5763 9.73489 29.4533 9.80253 29.3734C9.68775 29.357 9.57295 29.3365 9.45817 29.3303C9.42127 29.3283 9.38029 29.3734 9.34134 29.3754C9.04208 29.3795 8.96214 29.525 9.03183 29.8038C9.07897 29.9924 8.93549 30.0457 8.78996 30.0416C8.5358 30.0334 8.28368 29.9924 8.03156 29.9903C7.93522 29.9903 7.81838 30.0334 7.74254 30.0949C7.62775 30.1892 7.51912 30.308 7.45148 30.4372C7.41459 30.5089 7.44944 30.6319 7.48428 30.72C7.50478 30.7733 7.59086 30.8 7.6421 30.843C8.0377 31.1669 8.04181 31.171 8.32467 30.7303C8.41281 30.593 8.53374 30.5581 8.64443 30.636C8.71822 30.6872 8.78381 30.8287 8.76946 30.9168C8.71002 31.2919 8.63213 31.3493 8.24473 31.3759C7.90242 31.4005 7.50683 31.9806 7.61137 32.3065C7.72205 32.6529 8.30827 32.8005 8.58908 32.5545C8.75306 32.4111 8.81456 32.4275 8.85556 32.6263C8.91705 32.9235 9.2655 33.0793 9.51967 32.9153C9.60986 32.8559 9.69184 32.7739 9.75743 32.6878C10.1284 32.204 10.2473 32.1815 10.7741 32.5033C10.8253 32.534 10.9032 32.5238 10.9688 32.5341C11.0324 32.5464 11.141 32.5463 11.1492 32.5771C11.2045 32.7657 11.3583 32.737 11.4977 32.7903C11.8154 32.9133 11.8892 32.6734 12.0326 32.5135C12.0921 32.448 12.1556 32.3721 12.2335 32.3414C12.3995 32.2717 12.5041 32.1917 12.5246 31.9827C12.5594 31.6199 12.6476 31.2612 12.7008 30.8984C12.7213 30.759 12.7172 30.6135 12.705 30.472C12.6742 30.1482 12.6271 29.8243 12.5963 29.5005C12.5902 29.4431 12.6271 29.3365 12.6599 29.3283C12.7234 29.316 12.832 29.3344 12.8628 29.3816C13.1231 29.7649 13.4921 30.14 13.4285 30.6258C13.3609 31.1402 13.4306 31.6875 13.16 32.1692C12.9919 32.4644 12.8054 32.7226 12.4774 32.8866C12.2438 33.0034 12.0777 33.2535 11.8523 33.397C11.6596 33.52 11.4321 33.6081 11.2086 33.6553C10.6901 33.7639 10.1653 33.8377 9.64265 33.9258C9.09742 34.0181 8.54194 34.0713 8.01105 34.2189C7.6257 34.3276 7.308 34.1984 6.96364 34.1205C6.62134 34.0427 6.33438 33.8992 6.12326 33.6081C6.09661 33.5712 6.01666 33.5753 5.96132 33.5589C5.89778 33.5384 5.81375 33.5364 5.77685 33.4933C5.45094 33.1223 5.0246 32.9092 4.58596 32.7124C4.55111 32.696 4.52037 32.6693 4.47322 32.6365C4.30105 32.8846 4.13706 33.1182 4.02637 33.2761C3.71891 33.3908 3.47705 33.4728 3.23928 33.5712C3.0548 33.6471 2.78424 33.5733 2.67971 33.4011C2.56082 33.2043 2.10168 33.0342 1.91925 33.1674C1.68353 33.3416 1.53389 33.1531 1.41296 33.0608C1.14649 32.86 1.16495 32.5197 1.39452 32.2594C1.43961 32.2081 1.49291 32.1159 1.47446 32.0688C1.45396 32.0175 1.34738 31.9601 1.29203 31.9724C1.1342 32.0073 0.964077 32.0483 0.832894 32.1364C0.662766 32.2512 0.451645 32.2491 0.347108 32.079C0.140085 31.7408 0.174932 31.1853 0.424999 30.8615C0.449596 30.8287 0.478289 30.7815 0.511084 30.7733C0.783699 30.7118 0.720158 30.5643 0.601273 30.4085C0.677113 30.308 0.736557 30.2035 0.820596 30.1236C0.986625 29.9678 1.085 29.8264 0.839037 29.6542C0.810341 29.6337 0.81035 29.5476 0.822648 29.4984C0.898488 29.1807 0.869789 28.8978 0.588975 28.6806C0.371704 28.5125 0.187231 28.3218 0.34916 28.0226C0.0683464 27.8689 -0.0915439 27.5286 0.056037 27.2642C0.133927 27.1269 0.375796 27.0654 0.556173 27.0059C0.65046 26.9731 0.773448 27.0326 0.880034 27.0223C1.39247 26.9772 1.86186 27.1904 2.35174 27.2457C2.76989 27.2949 3.02201 27.5204 3.28847 27.7766C3.29462 27.7828 3.30076 27.791 3.30896 27.791C3.61027 27.8463 3.80295 27.9529 3.55288 28.2809C3.66767 28.5391 3.63693 28.8507 3.94849 29.0331C4.19856 29.1786 4.37688 29.4512 4.6249 29.605C4.75813 29.687 4.98155 29.6726 5.14963 29.6357C5.70511 29.5189 6.10686 29.1274 6.51885 28.7769C6.81197 28.5268 7.13173 28.3649 7.48223 28.2276C7.75895 28.1189 8.04181 28.0062 8.28983 27.8422C8.8945 27.4425 9.55656 27.3667 10.2494 27.4364C10.4134 27.4528 10.5835 27.502 10.729 27.5737C10.7884 27.6024 10.8335 27.7438 10.8192 27.8238C10.77 28.1066 10.7003 28.3874 10.6204 28.6621C10.563 28.8609 10.481 29.029 10.2043 28.9183C10.0403 28.8589 9.98291 28.9716 10.0075 29.1499ZM0.496735 31.1013C0.623818 31.1997 0.716062 31.2837 0.822648 31.3472C0.88414 31.3862 1.00096 31.4333 1.02966 31.4067C1.08705 31.3555 1.10345 31.255 1.13215 31.1751C1.14855 31.1279 1.14855 31.0767 1.1629 31.0275C1.1834 30.9619 1.24283 30.882 1.22234 30.8348C1.19979 30.7836 1.1096 30.7487 1.04401 30.7344C0.765246 30.6729 0.728355 30.9558 0.496735 31.1013Z" fill="black"/>
<path d="M54.7945 20.6212C54.3354 20.6499 53.9336 20.4633 53.5708 20.1641C53.495 20.1005 53.4007 20.0575 53.3146 20.0042C52.9805 19.7972 52.7038 19.5389 52.4824 19.2048C52.302 18.9301 52.0807 18.6821 51.8593 18.4382C51.6174 18.1676 51.4657 17.854 51.4514 17.5035C51.433 17.071 51.4371 16.6447 51.5191 16.2019C51.6441 15.544 51.9782 15.0418 52.3963 14.5888C52.6484 14.3162 52.9682 14.105 53.3433 13.9534C53.8844 13.734 54.4133 13.734 54.9544 13.8386C55.6452 13.9718 56.174 14.3551 56.5265 14.9741C56.6229 15.1422 56.752 15.2898 56.8607 15.4497C56.9283 15.546 57.0472 15.6526 57.039 15.7489C57.0082 16.1917 57.3526 16.5401 57.3218 16.9788C57.2931 17.4092 57.3301 17.8479 57.2583 18.2681C57.2153 18.5181 57.0308 18.7497 56.8873 18.9752C56.67 19.3175 56.4507 19.6639 56.1986 19.9816C55.8317 20.451 55.4299 20.6191 54.7945 20.6212ZM53.8476 18.2414C54.0792 18.2455 54.2267 18.1164 54.2206 17.9237C54.2144 17.7228 54.0792 17.6162 53.9029 17.5855C53.7307 17.5568 53.5483 17.7495 53.5442 17.9381C53.5421 18.1615 53.6897 18.223 53.8476 18.2414Z" fill="black"/>
<path d="M47.362 34.096C47.405 34.0202 47.4727 33.9074 47.5711 33.7414C47.4337 33.7086 47.3231 33.6758 47.2083 33.6574C47.0566 33.6328 46.9029 33.6061 46.7512 33.6041C46.6835 33.602 46.6159 33.6574 46.5462 33.6799C46.4909 33.6984 46.4335 33.7045 46.3781 33.7168C46.3986 33.6615 46.4048 33.5877 46.4437 33.5528C46.7327 33.3028 47.0361 33.0711 47.4686 33.0793C47.4071 33.3274 47.5793 33.3274 47.7658 33.3069C47.9523 33.2864 48.0794 33.352 48.1306 33.5426C48.1409 33.5836 48.1511 33.6369 48.1798 33.6574C48.3889 33.8131 48.475 33.9812 48.2864 34.2149C48.2721 34.2313 48.3274 34.3358 48.3725 34.3604C48.7292 34.5613 49.0981 34.7458 49.4507 34.9528C49.5613 35.0184 49.6208 35.1701 49.7335 35.2316C49.959 35.3545 50.2029 35.4386 50.4386 35.5411C50.537 35.5841 50.6334 35.6292 50.7133 35.6661C50.8547 35.6989 50.9921 35.7092 51.1048 35.7645C51.3077 35.867 51.3467 35.6928 51.4737 35.5821C51.2995 35.4427 51.1438 35.3053 50.9736 35.1906C50.9367 35.166 50.8404 35.2254 50.7625 35.25C50.5145 34.8811 50.5206 34.6187 50.8383 34.2661C50.9121 34.1842 51.0556 34.1472 51.1745 34.1309C51.3856 34.1022 51.6008 34.1145 51.732 33.8931C51.7505 33.8623 51.8919 33.8541 51.9186 33.8869C52.0723 34.0591 52.2527 34.0878 52.4699 34.0591C52.6073 34.0407 52.7385 34.1268 52.6975 34.2887C52.6175 34.6064 52.8676 34.7827 53.0356 34.9118C53.3001 35.1127 53.6198 35.2971 54.0031 35.1639C54.0892 35.1332 54.204 35.1967 54.3003 35.1865C54.3844 35.1762 54.4643 35.1229 54.5463 35.0901C54.5135 35.0225 54.4643 34.9569 54.45 34.8852C54.4274 34.7847 54.3844 34.6494 54.4295 34.5818C54.4992 34.4773 54.6324 34.4117 54.7492 34.3502C54.7615 34.344 54.8948 34.4773 54.8886 34.5387C54.8763 34.7007 54.8169 34.8585 54.7697 35.0512C54.8107 35.0737 54.8784 35.1291 54.9542 35.1475C55.028 35.166 55.1366 35.1721 55.1838 35.1311C55.2289 35.0901 55.2207 34.9835 55.2268 34.9057C55.233 34.8298 55.2268 34.7519 55.2268 34.6761C55.3027 34.6986 55.3805 34.7171 55.4523 34.7478C55.5302 34.7806 55.5978 34.8401 55.6778 34.8647C55.8684 34.9221 55.9565 35.0614 55.9709 35.2377C55.9893 35.4591 56.0959 35.4447 56.2435 35.3689C56.3193 35.3299 56.3952 35.289 56.4608 35.2377C56.6288 35.1106 56.6206 34.9712 56.4444 34.8503C56.43 34.8401 56.4136 34.836 56.3993 34.8278C56.2455 34.7499 56.1779 34.6125 56.2681 34.4711C56.3706 34.3112 56.553 34.3358 56.6678 34.4506C56.8441 34.6269 56.9834 34.6392 57.1966 34.5019C57.4692 34.3256 57.4877 34.1882 57.2171 33.9915C57.0675 33.8828 56.9199 33.766 56.7949 33.6307C56.6575 33.4831 56.7026 33.3786 56.8994 33.3724C57.1085 33.3642 57.3196 33.3766 57.5266 33.395C57.791 33.4196 58.0514 33.3253 58.285 33.5405C58.3158 33.5692 58.4408 33.5077 58.5146 33.4729C58.6663 33.4011 58.8139 33.3212 58.9614 33.2392C59.0168 33.2085 59.0926 33.1654 59.1029 33.1162C59.1111 33.0752 59.0455 32.9953 58.9942 32.9728C58.7667 32.8723 58.7729 32.7842 58.9184 32.5792C59.0229 32.4316 59.0434 32.2348 59.2361 32.1283C59.275 32.1057 59.2156 31.9048 59.2013 31.7737C59.2628 31.7737 59.3222 31.7737 59.4431 31.7737C58.7893 31.0276 58.8323 30.1072 58.654 29.2443C58.863 29.4247 59.0291 29.6153 59.1828 29.8469C59.3447 30.0929 59.3837 30.304 59.3058 30.5787C59.3283 30.5766 59.3529 30.5766 59.3755 30.5746C59.4165 30.5213 59.4595 30.4659 59.5067 30.4044C59.5231 30.4311 59.5415 30.4475 59.5456 30.468C59.5907 30.716 59.6112 30.9681 59.6788 31.21C59.767 31.5236 59.892 31.827 59.9945 32.1365C60.0089 32.1795 59.9924 32.2348 59.9801 32.282C59.8736 32.7391 59.767 33.1982 59.6522 33.6533C59.6276 33.7475 59.5763 33.8377 59.521 33.9177C59.3201 34.2087 59.1111 34.4937 58.902 34.7786C58.8589 34.838 58.8077 34.9015 58.7442 34.9364C58.3732 35.1475 58.0062 35.3709 57.6209 35.5534C57.1413 35.7788 56.6493 35.9818 56.1533 36.1724C55.811 36.3036 55.4564 36.4081 55.1018 36.4962C54.7636 36.5823 54.4069 36.7115 54.0728 36.6787C53.7285 36.6438 53.419 36.7668 53.0951 36.7545C52.7692 36.7422 52.4453 36.6869 52.1215 36.6479C52.0313 36.6377 51.9411 36.6028 51.8509 36.6008C51.5209 36.5905 51.2155 36.4675 50.9039 36.3999C50.369 36.2851 49.9385 35.9736 49.4466 35.785C49.2457 35.7071 49.0797 35.5329 48.9095 35.3914C48.5816 35.1188 48.2598 34.838 47.9339 34.5633C47.7474 34.4137 47.5629 34.262 47.362 34.096Z" fill="black"/>
<path d="M30.5461 23.9434C30.4375 24.0028 30.3206 24.052 30.2202 24.1238C30.1403 24.1832 30.0829 24.2714 30.0152 24.3451C30.1013 24.3779 30.1874 24.4148 30.2755 24.4435C30.3411 24.4661 30.4108 24.4804 30.4785 24.4989C30.4395 24.5583 30.4108 24.628 30.3596 24.6731C30.0788 24.9252 30.0644 25.1486 30.296 25.4459C30.4457 25.6385 30.3452 25.8087 30.1853 25.9665C30.2796 26.0403 30.3739 26.0977 30.4457 26.1776C30.4887 26.2268 30.4989 26.3067 30.5215 26.3723C30.4559 26.3887 30.3883 26.4256 30.3268 26.4195C30.1423 26.4031 29.9619 26.3457 29.7774 26.3457C29.3429 26.3457 28.976 26.1325 28.5825 26.0034C28.4574 25.9624 28.3365 25.8988 28.2278 25.825C28.0762 25.7205 27.9245 25.6057 27.7995 25.4725C27.7585 25.4295 27.7708 25.2921 27.8118 25.2306C27.8548 25.163 28.0475 25.1814 27.9388 25.0359C27.9101 24.999 27.7605 25.0523 27.6867 25.0605C27.4879 24.8125 27.2563 24.5337 27.0411 24.2447C27.0021 24.1914 27.0247 24.093 27.0165 23.9967C26.955 23.9823 26.8484 23.9475 26.7397 23.9352C26.5614 23.9147 26.4405 23.9536 26.2888 24.1115C26.0695 24.341 25.8379 24.6383 25.4546 24.6362C25.4238 24.5112 25.3746 24.4087 25.3828 24.3103C25.391 24.2058 25.4279 24.0848 25.4935 24.0049C25.6288 23.8389 25.6431 23.7282 25.4546 23.5867C25.3767 23.5273 25.3234 23.3715 25.3377 23.2711C25.3459 23.1993 25.4792 23.1112 25.5693 23.0907C25.7149 23.0579 25.8522 23.0538 25.8993 22.8734C25.9096 22.8365 25.9957 22.7874 26.0326 22.7955C26.0736 22.8058 26.1105 22.8755 26.1248 22.9267C26.1658 23.0641 26.1884 23.2075 26.2314 23.3449C26.2396 23.3736 26.3052 23.3859 26.3462 23.4043C26.3605 23.3756 26.3933 23.3346 26.3851 23.3223C26.1494 22.9657 26.5696 22.8775 26.6598 22.6562C26.6762 22.6152 26.7828 22.6152 26.8115 22.5742C27.0349 22.2298 27.2788 22.4287 27.5535 22.5045C27.8753 22.5926 28.2237 22.5906 28.5599 22.6213C28.6685 22.6316 28.7792 22.6275 28.8879 22.6316C29.0559 22.6377 29.2261 22.648 29.4495 22.6582C29.4003 22.7874 29.3777 22.9657 29.2794 23.0764C29.1502 23.2239 28.9678 23.3326 28.7956 23.4351C28.6521 23.5191 28.4554 23.6011 28.5394 23.7794C28.6173 23.9434 28.7997 24.0705 28.9596 24.1771C29.0252 24.2222 29.1584 24.1832 29.2548 24.1607C29.6319 24.0725 30.007 23.9741 30.3821 23.8819C30.4252 23.8717 30.4743 23.8799 30.5194 23.8799C30.5256 23.8983 30.5358 23.9208 30.5461 23.9434Z" fill="black"/>
<path d="M26.6023 29.6644C26.7827 29.5783 26.9569 29.4737 27.1455 29.4143C27.373 29.3426 27.6149 29.32 27.8444 29.2544C27.8957 29.2401 27.9531 29.1253 27.949 29.0597C27.9387 28.7953 27.7481 28.6395 27.4632 28.6744C27.3033 28.6948 27.2418 28.6498 27.2439 28.494C27.2459 28.3505 27.25 28.207 27.2336 28.0656C27.2254 27.9897 27.1947 27.8975 27.1414 27.8483C27.0143 27.7335 27.0368 27.6515 27.1639 27.5675C27.6169 27.2703 28.6213 27.5368 28.7197 28.0512C28.7894 28.412 29.1153 28.7338 28.9328 29.1499C28.9041 29.2134 28.9923 29.3282 29.0312 29.4307C28.8591 29.5127 28.693 29.6111 28.5126 29.6664C28.4512 29.6849 28.3036 29.6111 28.2851 29.5537C28.2277 29.3692 28.1232 29.3692 27.9982 29.4451C27.8772 29.5168 27.7583 29.6008 27.6682 29.7054C27.5349 29.8571 27.4017 29.9124 27.2008 29.8468C27.0163 29.7853 26.8196 29.7648 26.6289 29.7238C26.6166 29.7033 26.6084 29.6849 26.6023 29.6644Z" fill="black"/>
<path d="M33.4888 21.1192C33.7778 21.0577 34.0423 21.0003 34.3067 20.9471C34.5075 20.9061 34.6326 20.984 34.6654 21.2094C34.8499 21.1438 34.8416 21.0434 34.7781 20.9081C34.7515 20.8507 34.7638 20.7769 34.7597 20.7093C34.8355 20.7257 34.9134 20.7359 34.9892 20.7585C35.0774 20.7851 35.1676 20.8569 35.2495 20.8487C35.4791 20.8261 35.5427 20.9655 35.4894 21.1274C35.3438 21.5681 35.1122 21.9473 34.6367 22.1175C34.5875 22.1339 34.5362 22.2527 34.5465 22.3101C34.5936 22.5459 34.5075 22.7324 34.2862 22.8123C33.9828 22.923 33.8578 22.882 33.7225 22.6237C33.5052 22.2097 33.5298 22.0785 33.8721 21.7731C33.9213 21.728 33.9787 21.6809 34.0033 21.6214C34.032 21.5599 34.0586 21.4615 34.03 21.4185C34.0033 21.3775 33.8967 21.3611 33.8332 21.3713C33.5749 21.4164 33.536 21.3878 33.4888 21.1192Z" fill="black"/>
<path d="M16.8737 29.9615C16.6995 29.652 16.5232 29.3425 16.3531 29.0309C16.1563 28.6702 15.9534 28.3135 15.773 27.9446C15.7238 27.8441 15.732 27.7068 15.7423 27.5879C15.7484 27.4895 15.814 27.3953 15.8181 27.2969C15.8325 27.0366 15.9944 26.9361 16.2301 26.8685C16.5171 27.3256 16.7302 27.8052 16.8717 28.3197C16.8942 28.3996 16.9188 28.4837 16.966 28.5533C17.132 28.8014 17.1484 29.0268 16.9578 29.2339C16.8409 29.3589 16.8512 29.4552 16.9086 29.5946C16.9516 29.6992 16.9455 29.8242 16.9598 29.941C16.9311 29.9472 16.9024 29.9554 16.8737 29.9615Z" fill="black"/>
<path d="M15.913 17.7353C16.0482 17.6348 16.1507 17.5385 16.2696 17.477C16.3557 17.4319 16.5053 17.3847 16.5566 17.4257C16.7103 17.5508 16.8927 17.6984 16.9501 17.8746C17.0506 18.1821 17.233 18.4219 17.4154 18.672C17.4749 18.7519 17.5363 18.8483 17.5466 18.9425C17.5568 19.0348 17.5015 19.1352 17.4769 19.2316C17.3847 19.1906 17.2576 19.1762 17.2104 19.1065C17.0998 18.9487 17.0157 18.7683 16.946 18.5879C16.8702 18.3932 16.7472 18.3276 16.5504 18.3768C16.493 18.3912 16.4336 18.3994 16.3762 18.4076C16.0544 18.4547 16.0687 18.4547 16.04 18.1411C16.0216 17.9874 15.9458 17.8377 15.913 17.7353Z" fill="black"/>
<path d="M45.6096 11.0773C45.505 11.3438 45.2775 11.4668 45.1504 11.2925C45.0541 11.1593 44.9742 10.9564 45.0029 10.8068C45.05 10.5587 45.173 10.3169 45.3021 10.0934C45.3431 10.0237 45.5112 9.99915 45.6178 10.0053C45.6752 10.0094 45.7305 10.1201 45.7777 10.1898C45.8494 10.2984 45.9089 10.4132 45.9806 10.5239C46.0257 10.5936 46.1159 10.6551 46.12 10.7248C46.1282 10.8518 46.1282 11.0589 46.0605 11.0937C45.9478 11.1491 45.7818 11.0896 45.6096 11.0773Z" fill="black"/>
<path d="M25.4213 22.339C25.3619 22.3943 25.3188 22.4701 25.2594 22.4845C25.1405 22.5132 25.0114 22.5296 24.8925 22.5111C24.7715 22.4927 24.6629 22.4086 24.542 22.384C24.4087 22.3574 24.3165 22.3041 24.3882 22.1729C24.46 22.0438 24.5625 21.9187 24.6813 21.8327C24.8289 21.724 24.997 21.6523 25.0933 21.9208C25.1261 22.0089 25.2163 22.0766 25.2799 22.1565C25.3229 22.2078 25.3619 22.2611 25.4213 22.339Z" fill="black"/>
<path d="M44.6172 9.38672C44.6766 9.18789 44.7381 8.96037 44.8201 8.74105C44.8365 8.698 44.9452 8.69186 45.0107 8.66931C45.0497 8.78615 45.1542 8.93373 45.1153 9.01367C44.9513 9.36007 44.9451 9.34367 45.2034 9.60808C45.269 9.67367 45.2669 9.81511 45.2731 9.92375C45.2751 9.94425 45.1399 10.0057 45.1214 9.98934C44.9554 9.83971 44.7996 9.67778 44.6438 9.51585C44.6254 9.49536 44.6295 9.45026 44.6172 9.38672Z" fill="black"/>
<path d="M22.9335 21.4758C22.8741 21.6419 22.8515 21.8345 22.749 21.9657C22.6137 22.14 22.4846 21.9739 22.3719 21.8837C22.2468 21.7833 22.2591 21.6726 22.3903 21.6029C22.5338 21.5271 22.6957 21.482 22.8495 21.4246C22.8782 21.441 22.9048 21.4574 22.9335 21.4758Z" fill="black"/>
<path d="M26.4139 20.7257C26.4487 20.8425 26.4979 20.9143 26.4795 20.9553C26.418 21.0947 26.3442 21.232 26.2499 21.3488C26.213 21.3939 26.0818 21.4206 26.0388 21.3919C25.9732 21.3468 25.8953 21.1951 25.9138 21.1746C26.0511 21.0291 26.211 20.902 26.4139 20.7257Z" fill="black"/>
<path d="M17.3331 17.1362C17.2101 17.2674 17.126 17.3535 17.044 17.4416C16.9764 17.3453 16.8555 17.2469 16.8555 17.1506C16.8555 17.0788 17.0051 16.9845 17.1035 16.9477C17.1424 16.9333 17.2285 17.0461 17.3331 17.1362Z" fill="black"/>
<path d="M24.4927 20.1128C24.3902 20.2009 24.2939 20.2973 24.1832 20.3731C24.1607 20.3895 24.05 20.3383 24.052 20.326C24.0602 20.2399 24.0623 20.1107 24.1156 20.0841C24.2119 20.0328 24.341 20.041 24.4558 20.0226C24.4661 20.0533 24.4804 20.0841 24.4927 20.1128Z" fill="black"/>
<path d="M17.7226 18.1633C17.6447 18.1018 17.5668 18.0423 17.493 17.9767C17.4582 17.946 17.411 17.9009 17.4131 17.864C17.4151 17.825 17.4664 17.7656 17.5033 17.7615C17.5504 17.7554 17.6324 17.7779 17.6509 17.8148C17.7082 17.9193 17.741 18.0362 17.7841 18.1489C17.7636 18.153 17.7431 18.1571 17.7226 18.1633Z" fill="black"/>
<path d="M58.521 33.2251C58.4226 33.2825 58.3652 33.3337 58.2996 33.3481C58.2689 33.3542 58.2238 33.2866 58.1848 33.2517C58.2484 33.1964 58.3099 33.1349 58.3796 33.0918C58.3878 33.0857 58.4472 33.1554 58.521 33.2251Z" fill="black"/>
<path d="M52.9 26.479C52.9983 26.563 53.0967 26.6471 53.191 26.7352C53.1931 26.7372 53.1275 26.8172 53.1254 26.8151C53.0168 26.7393 52.9143 26.6594 52.8098 26.5794C52.8384 26.5466 52.8692 26.5118 52.9 26.479Z" fill="black"/>
<path d="M47.6899 10.487C47.6899 10.3804 47.6899 10.2738 47.6899 10.1693C47.7186 10.1693 47.7453 10.1693 47.774 10.1693C47.774 10.2758 47.774 10.3845 47.774 10.491C47.7453 10.489 47.7166 10.489 47.6899 10.487Z" fill="black"/>
<path d="M30.6133 20.826C30.7876 20.4816 31.0069 20.211 31.4127 20.2028C31.4865 20.2008 31.5603 20.2438 31.6362 20.2664C31.6116 20.3381 31.6054 20.4242 31.5583 20.4754C31.4414 20.6066 31.3144 20.7296 31.1811 20.8444C30.8942 21.0965 30.8921 21.0924 30.6133 20.826Z" fill="white"/>
<path d="M20.6104 19.754C20.5571 19.9733 20.5346 20.1353 20.4731 20.2808C20.4464 20.3443 20.3235 20.4222 20.264 20.4079C20.1123 20.3689 19.9668 20.2951 19.8336 20.207C19.8008 20.1845 19.8028 20.041 19.8397 19.9959C19.9484 19.8647 20.0754 19.7479 20.2087 19.6413C20.2722 19.5921 20.389 19.5347 20.4423 19.5613C20.5264 19.6023 20.5756 19.711 20.6104 19.754Z" fill="white"/>
<path d="M30.4432 20.0509C30.2608 19.9977 30.105 19.9628 29.9574 19.9054C29.898 19.8829 29.8283 19.8111 29.8201 19.7537C29.8099 19.6922 29.859 19.5652 29.8939 19.5611C30.0374 19.5406 30.1911 19.5324 30.3284 19.5693C30.3879 19.5857 30.4268 19.7189 30.4514 19.807C30.4699 19.8747 30.4494 19.9546 30.4432 20.0509Z" fill="white"/>
<path d="M12.5797 15.542C12.5674 15.2755 12.7252 15.2099 12.8707 15.2181C12.9712 15.2243 13.0654 15.3473 13.1618 15.417C13.008 15.499 12.8584 15.5871 12.6985 15.6506C12.6719 15.6629 12.6002 15.5604 12.5797 15.542Z" fill="white"/>
<path d="M12.3507 16.3307C12.2133 16.3041 12.0863 16.2959 11.9756 16.2508C11.8997 16.22 11.83 16.1462 11.7891 16.0724C11.7727 16.0437 11.8321 15.9249 11.869 15.9208C11.951 15.9085 12.0699 15.9105 12.1191 15.9617C12.2174 16.0622 12.4347 16.1032 12.3507 16.3307Z" fill="white"/>
<path d="M29.9593 20.6274C29.8179 20.7299 29.7236 20.8303 29.6068 20.8693C29.5617 20.8836 29.4715 20.7606 29.4018 20.7012C29.5207 20.6069 29.6355 20.5065 29.7605 20.4245C29.7728 20.4163 29.8589 20.5208 29.9593 20.6274Z" fill="white"/>
<path d="M20.1844 22.4209C20.1126 22.6053 20.0593 22.7468 20.006 22.8862C19.9487 22.7509 19.8769 22.6176 19.8421 22.4783C19.8318 22.4373 19.92 22.3286 19.9671 22.3245C20.0347 22.3204 20.1085 22.384 20.1844 22.4209Z" fill="white"/>
<path d="M16.0254 16.4538C15.9536 16.3595 15.8696 16.2714 15.8204 16.1668C15.7999 16.1217 15.8552 16.0418 15.8778 15.9762C15.9434 16.0131 16.0438 16.0377 16.0664 16.091C16.1053 16.1853 16.0971 16.3021 16.1094 16.4087C16.0807 16.423 16.0541 16.4394 16.0254 16.4538Z" fill="white"/>
<path d="M45.4456 7.97843C45.3862 7.8411 45.3185 7.76115 45.337 7.71401C45.3616 7.64637 45.4456 7.57873 45.5153 7.56028C45.5481 7.55208 45.6629 7.67097 45.6506 7.70582C45.626 7.78575 45.5481 7.8493 45.4456 7.97843Z" fill="white"/>
<path d="M15.5969 15.1138C15.4514 15.1814 15.3079 15.2122 15.1788 15.081C15.1808 15.0482 15.1829 15.0154 15.187 14.9826C15.3263 14.9908 15.4657 15.0011 15.6051 15.0093C15.6031 15.0461 15.599 15.0789 15.5969 15.1138Z" fill="white"/>
<path d="M20.5987 42.4571C20.652 42.4305 20.7074 42.3997 20.7566 42.3751C20.8959 42.451 21.0906 42.8589 21.0906 43.0044C21.0906 43.1376 21.1337 43.2688 21.1337 43.402C21.1337 43.4779 21.0948 43.607 21.0497 43.6173C20.8201 43.6726 20.7422 43.8038 20.777 44.0252C20.7811 44.0518 20.7565 44.0846 20.7422 44.1256C20.4019 43.9678 20.0637 43.9104 19.703 44.017C19.5575 44.06 19.4652 43.9719 19.4345 43.8202C19.3914 43.5988 19.3422 43.3795 19.293 43.1622C19.2828 43.113 19.2582 43.0679 19.2643 43.0843C19.4181 42.8056 19.5472 42.5699 19.662 42.3628C19.7788 42.3362 19.8936 42.328 19.9961 42.287C20.2687 42.1763 20.3323 42.1886 20.5987 42.4571Z" fill="white"/>
<path d="M17.4171 45.5092C17.3146 45.6034 17.2183 45.7059 17.1035 45.7818C17.081 45.7961 16.9928 45.7141 16.9354 45.6772C17.0072 45.587 17.0666 45.4784 17.1588 45.4169C17.2101 45.3821 17.3167 45.4272 17.3966 45.4354C17.4028 45.46 17.4089 45.4846 17.4171 45.5092Z" fill="white"/>
<path d="M0.496399 31.1013C0.728019 30.9578 0.766961 30.6749 1.04367 30.7343C1.11132 30.7487 1.2015 30.7856 1.222 30.8348C1.2425 30.8819 1.18101 30.9598 1.16256 31.0275C1.14821 31.0746 1.14616 31.1279 1.13181 31.175C1.10312 31.257 1.08672 31.3554 1.02933 31.4067C1.00063 31.4333 0.883804 31.3841 0.822312 31.3472C0.715726 31.2816 0.623483 31.1996 0.496399 31.1013Z" fill="white"/>
<path d="M53.8474 18.2411C53.6875 18.2226 53.542 18.1611 53.544 17.9398C53.5481 17.7512 53.7306 17.5585 53.9027 17.5872C54.079 17.618 54.2143 17.7245 54.2204 17.9254C54.2286 18.116 54.079 18.2452 53.8474 18.2411Z" fill="white"/>
</svg>
